<svg xmlns="http://www.w3.org/2000/svg" xmlns:xlink="http://www.w3.org/1999/xlink" width="48" height="48" viewBox="0 0 48 48"><defs><linearGradient id="a"><stop offset="0" stop-color="#16ff6a"/><stop offset="1" stop-color="#0090a5"/></linearGradient><linearGradient id="b" x1="1073.403" x2="1097.116" y1="516.451" y2="544.308" gradientTransform="translate(-1651.872 220.083) scale(1.53785)" gradientUnits="userSpaceOnUse" xlink:href="#a"/></defs><g fill="#fff" transform="translate(8 -1013.103)"><rect width="48" height="48" x="-8" y="1013.103" fill="url(#b)" rx="10.144" ry="10.144"/><path style="text-indent:0;text-align:start;line-height:normal;text-transform:none;block-progression:tb;marker:none;-inkscape-font-specification:Sans" d="m 22.498857,1025.1037 c -0.2402,0.01 -0.4914,0.057 -0.7187,0.1563 -0.4548,0.1981 -0.8811,0.5318 -1.3438,0.9687 -0.9254,0.8738 -1.9425,2.1806 -2.9687,3.6563 -1.9323,2.7786 -3.8849,6.1372 -5.3125,8.5312 1.1607,1.9984 2.7308,2.6165 5.2187,2.9688 1.3746,-2.3773 3.3237,-5.6958 4.7813,-8.75 0.7769,-1.628 1.4047,-3.1477 1.6875,-4.4063 0.1413,-0.6293 0.199,-1.2119 0.125,-1.7187 -0.074,-0.5067 -0.3326,-0.9909 -0.7813,-1.25 -0.2179,-0.1258 -0.4473,-0.163 -0.6875,-0.1563 z m -10.8125,14.4688 c -0.1986,0.7022 -0.4681,1.4571 -0.5625,2.2187 -0.053,0.4263 -0.027,0.8385 0.094,1.25 -0.096,0 -0.1858,0 -0.2812,0 -0.198,0.01 -0.4044,0.013 -0.5938,0.062 -0.6791,0.1795 -1.2587,0.6751 -1.5312002,1.4063 -0.4632,0.8672 -1.3119,1.2507 -1.8125003,1.875 -0.084,0.1052 -0.1133,0.244 -0.125,0.3125 -0.017,0.1 -0.02,0.1982 0,0.2812 0.027,0.1144 0.097,0.2385 0.1562,0.3125 0.086,0.1073 0.1748,0.1831 0.2813,0.25 0.083,0.052 0.1619003,0.108 0.2500003,0.1563 0.1423,0.078 0.308,0.1506 0.4687,0.2187 0.2045,0.082 0.3438,0.1289 0.5,0.1875 0.8901002,0.3659 1.6466002,0.4115 1.9688002,0.4375 0.891,0.072 2.3069,-0.399 3.0937,-1.6562 0.415,-0.7189 0.4325,-1.5711 0.125,-2.2813 0.4587,-0.091 0.846,-0.3482 1.2188,-0.625 0.6577,-0.4885 1.2149,-1.1325 1.75,-1.6875 -2.0943,-0.3677 -3.79,-1.0596 -5,-2.7187 z m 0.5313,1.1875 c 0.277,-0.1057 0.17,0.6111 0.094,0.8437 -0.2292,0.6989 -0.488,0.963 -0.5938,0.75 -0.1123,-0.2262 0.2408,-1.4947 0.5,-1.5937 z m -1.25,3.2812 c 0.392,-0.017 0.8302,0.057 1.2187,0.2813 0.73,0.4214 0.984,1.3325 0.5625,2.0625 -0.086,0.1484 -0.1796,0.2817 -0.2812,0.4062 -0.5228,-0.233 -1.1936,0.063 -1.6875,-0.25 -0.4385,-0.2773 -0.6612,-1.3049 -1.0313,-1.75 0.1588,-0.3902 0.4518,-0.6152 0.8438,-0.7187 0.1159,-0.031 0.2443,-0.026 0.375,-0.031 z m -2.3125002,1.375 c -0.1905,0.8062 -1.0665,0.8951 -0.875,1.6875 0.04,0.2343 0.5001,0.6326 0.5625,0.7188 -0.4373,-0.2167 -0.6487,-0.334 -0.7188,-0.375 -0.118,-0.076 -0.3615003,-0.2178 -0.4375003,-0.4688 -0.057,-0.1883 0.029,-0.3606 0.094,-0.4687 -0.036,0.05 -0.06,0.078 0.062,-0.094 0.2451,-0.3428 0.7615,-0.3549 1.3125,-1 z" color="#000" font-family="Sans" font-weight="400" overflow="visible"/></g></svg>